<svg width="52" height="63" viewBox="0 0 52 63" fill="none" xmlns="http://www.w3.org/2000/svg">
<path d="M47.1187 1.90794H4.82599C4.39952 1.908 3.97776 1.99956 3.5877 2.17678C3.19764 2.35401 2.84787 2.61298 2.56078 2.93713C2.27368 3.26128 2.05559 3.64347 1.92045 4.05923C1.78531 4.475 1.7361 4.91519 1.77597 5.35162L5.89372 50.4895C5.94359 51.0389 6.133 51.5651 6.44299 52.0156C6.75297 52.466 7.17265 52.8249 7.66 53.0561L24.6886 61.1339C25.0911 61.3248 25.5291 61.4237 25.9723 61.4237C26.4156 61.4237 26.8536 61.3248 27.2561 61.1339L44.2847 53.0561C44.7723 52.8251 45.1923 52.4663 45.5026 52.0159C45.8128 51.5654 46.0025 51.039 46.0525 50.4895L50.1687 5.35162C50.2086 4.91519 50.1594 4.475 50.0242 4.05923C49.8891 3.64347 49.671 3.26128 49.3839 2.93713C49.0968 2.61298 48.747 2.35401 48.357 2.17678C47.9669 1.99956 47.5452 1.908 47.1187 1.90794Z" stroke="white" stroke-width="2"/>
<path d="M38.2276 12.9303H13.7172L15.2491 27.1018H36.6957L35.1638 44.4225L25.9724 49.1464L16.781 44.4225L16.015 36.5495" stroke="white" stroke-width="2" stroke-linecap="round" stroke-linejoin="round"/>
</svg>
